<svg width="29" height="20" viewBox="0 0 29 20" fill="none" xmlns="http://www.w3.org/2000/svg">
<path fill-rule="evenodd" clip-rule="evenodd" d="M28.5 14.9078V9.94815H24.2908C20.7169 9.94815 20.0815 9.92715 20.0815 9.80928C20.0815 9.73294 20.1346 9.33082 20.1996 8.91567C20.4919 7.04579 21.7013 5.19117 23.357 4.07341C24.6552 3.19701 25.9349 2.72721 27.5151 2.547L28.5 2.43459V1.23173V0.0288696L27.8713 0.0301342C27.5256 0.0308151 26.7999 0.113184 26.2587 0.213057C24.0675 0.617413 22.2649 1.48224 20.6734 2.89253C19.1414 4.2503 18.2403 5.6214 17.6454 7.49994C17.4172 8.22054 17.4078 8.44703 17.3738 14.0569L17.3386 19.8674H22.9193H28.5V14.9078ZM11.663 14.9078V9.94815H7.49281H3.3226L3.38131 9.18621C3.4503 8.29192 3.91911 6.99415 4.46194 6.19536C5.88368 4.10297 8.24632 2.76552 10.9797 2.50587L11.663 2.44101V1.22054V8.39233e-05L10.7064 0.0579453C9.35931 0.139441 8.19155 0.434004 6.79779 1.04404C3.80978 2.35163 1.75621 4.58639 0.860247 7.50538L0.573141 8.44081L0.536516 14.1541L0.5 19.8674H6.08146H11.663V14.9078ZM20.0815 14.9564V12.4766H22.8695H25.6574V14.9564V17.4362H22.8695H20.0815V14.9564ZM3.35387 14.9564V12.4766H6.14181H8.92975V14.9564V17.4362H6.14181H3.35387V14.9564Z" fill="#0C7FDA"/>
</svg>
