<svg width="29" height="27" viewBox="0 0 29 27" fill="none" xmlns="http://www.w3.org/2000/svg">
<path id="Union" fill-rule="evenodd" clip-rule="evenodd" d="M9.79336 5.84014C9.29469 5.34855 9.29469 4.55153 9.79336 4.05994L13.5047 0.401285C14.0034 -0.0903045 14.8119 -0.0903045 15.3106 0.401285L19.0219 4.05994C19.5206 4.55153 19.5206 5.34855 19.0219 5.84014L15.3106 9.49879C14.8119 9.99038 14.0034 9.99038 13.5047 9.49879L9.79336 5.84014ZM13.7271 13.7391C13.4778 13.4933 13.4778 13.0947 13.7271 12.849L13.9736 12.606C14.2229 12.3602 14.6272 12.3602 14.8765 12.606L15.123 12.849C15.3724 13.0947 15.3724 13.4933 15.123 13.7391L14.8765 13.982C14.6272 14.2278 14.2229 14.2278 13.9736 13.982L13.7271 13.7391ZM18.5521 12.4227C18.0535 12.9143 18.0535 13.7114 18.5521 14.2029L22.2635 17.8616C22.7622 18.3532 23.5707 18.3532 24.0694 17.8616L27.7807 14.2029C28.2794 13.7114 28.2794 12.9143 27.7807 12.4227L24.0694 8.76409C23.5707 8.2725 22.7622 8.2725 22.2635 8.76409L18.5521 12.4227ZM1.08873 14.1935C0.590054 13.702 0.590054 12.9049 1.08873 12.4133L4.80009 8.75469C5.29877 8.2631 6.10727 8.2631 6.60595 8.75469L10.3173 12.4133C10.816 12.9049 10.816 13.702 10.3173 14.1935L6.60595 17.8522C6.10727 18.3438 5.29877 18.3438 4.80009 17.8522L1.08873 14.1935ZM9.79336 20.726C9.29469 21.2176 9.29469 22.0147 9.79336 22.5062L13.5047 26.1649C14.0034 26.6565 14.8119 26.6565 15.3106 26.1649L19.0219 22.5062C19.5206 22.0147 19.5206 21.2176 19.0219 20.726L15.3106 17.0674C14.8119 16.5758 14.0034 16.5758 13.5047 17.0674L9.79336 20.726Z" fill="white"/>
</svg>
