<svg width="29" height="20" viewBox="0 0 29 20" fill="none" xmlns="http://www.w3.org/2000/svg">
<path fill-rule="evenodd" clip-rule="evenodd" d="M0.5 14.9078V9.94815H4.70924C8.28306 9.94815 8.91849 9.92715 8.91849 9.80928C8.91849 9.73294 8.86535 9.33082 8.80041 8.91567C8.50806 7.04579 7.29875 5.19117 5.64304 4.07341C4.34484 3.19701 3.06512 2.72721 1.48485 2.547L0.5 2.43459V1.23173V0.0288696L1.12865 0.0301342C1.47436 0.0308151 2.2001 0.113184 2.74129 0.213057C4.9325 0.617413 6.73515 1.48224 8.32657 2.89253C9.85863 4.2503 10.7597 5.6214 11.3546 7.49994C11.5828 8.22054 11.5922 8.44703 11.6262 14.0569L11.6614 19.8674H6.08069H0.5V14.9078ZM17.337 14.9078V9.94815H21.5072H25.6774L25.6187 9.18621C25.5497 8.29192 25.0809 6.99415 24.5381 6.19536C23.1163 4.10297 20.7537 2.76552 18.0203 2.50587L17.337 2.44101V1.22054V8.39233e-05L18.2936 0.0579453C19.6407 0.139441 20.8085 0.434004 22.2022 1.04404C25.1902 2.35163 27.2438 4.58639 28.1398 7.50538L28.4269 8.44081L28.4635 14.1541L28.5 19.8674H22.9185H17.337V14.9078ZM8.91849 14.9564V12.4766H6.13055H3.34261V14.9564V17.4362H6.13055H8.91849V14.9564ZM25.6461 14.9564V12.4766H22.8582H20.0703V14.9564V17.4362H22.8582H25.6461V14.9564Z" fill="#0C7FDA"/>
</svg>
