<svg width="32" height="33" viewBox="0 0 32 33" fill="none" xmlns="http://www.w3.org/2000/svg">
<g id="uim:process">
<path id="Vector" d="M25.7563 22.8719C24.9741 22.0891 24.0601 21.4501 23.0563 20.9844C24.4719 19.8375 25.375 18.0875 25.375 16.125C25.375 12.6625 22.4875 9.82188 19.025 9.875C15.6156 9.92813 12.8688 12.7063 12.8688 16.125C12.8688 18.0875 13.775 19.8375 15.1875 20.9844C14.1835 21.4498 13.2695 22.0888 12.4875 22.8719C10.7813 24.5813 9.81252 26.8375 9.75002 29.2437C9.74918 29.2771 9.75503 29.3103 9.76722 29.3413C9.77941 29.3724 9.79769 29.4007 9.82099 29.4246C9.84429 29.4485 9.87213 29.4674 9.90288 29.4804C9.93363 29.4933 9.96665 29.5 10 29.5H11.75C11.8844 29.5 11.9969 29.3937 12 29.2594C12.0594 27.4469 12.7938 25.75 14.0844 24.4625C14.7448 23.7986 15.5304 23.2722 16.3956 22.9139C17.2608 22.5555 18.1885 22.3724 19.125 22.375C21.0281 22.375 22.8188 23.1156 24.1656 24.4625C25.4531 25.75 26.1875 27.4469 26.25 29.2594C26.2531 29.3937 26.3656 29.5 26.5 29.5H28.25C28.2834 29.5 28.3164 29.4933 28.3472 29.4804C28.3779 29.4674 28.4057 29.4485 28.429 29.4246C28.4523 29.4007 28.4706 29.3724 28.4828 29.3413C28.495 29.3103 28.5009 29.2771 28.5 29.2437C28.4375 26.8375 27.4688 24.5813 25.7563 22.8719ZM19.125 20.125C18.0563 20.125 17.05 19.7094 16.2969 18.9531C15.9189 18.5781 15.6204 18.1309 15.419 17.638C15.2177 17.1451 15.1177 16.6167 15.125 16.0844C15.1344 15.0594 15.5438 14.0688 16.2594 13.3344C17.0094 12.5656 18.0125 12.1375 19.0844 12.125C20.1438 12.1156 21.1719 12.5281 21.9281 13.2688C22.7031 14.0281 23.1281 15.0438 23.1281 16.125C23.1281 17.1938 22.7125 18.1969 21.9563 18.9531C21.5852 19.3259 21.144 19.6214 20.658 19.8226C20.172 20.0237 19.651 20.1265 19.125 20.125ZM11.2969 16.95C11.2688 16.6781 11.2531 16.4031 11.2531 16.125C11.2531 15.6281 11.3 15.1438 11.3875 14.6719C11.4094 14.5594 11.35 14.4438 11.2469 14.3969C10.8219 14.2063 10.4313 13.9438 10.0938 13.6125C9.69608 13.2269 9.38314 12.7626 9.17491 12.2493C8.96668 11.736 8.86774 11.1849 8.88439 10.6313C8.91252 9.62813 9.31564 8.675 10.0188 7.95625C10.7906 7.16563 11.8281 6.73438 12.9313 6.74688C13.9281 6.75625 14.8906 7.14063 15.6188 7.82188C15.8656 8.05313 16.0781 8.30938 16.2563 8.58438C16.3188 8.68125 16.4406 8.72188 16.5469 8.68438C17.0969 8.49375 17.6781 8.35938 18.275 8.29688C18.45 8.27813 18.55 8.09063 18.4719 7.93438C17.4563 5.925 15.3813 4.5375 12.9813 4.5C9.51564 4.44688 6.62814 7.2875 6.62814 10.7469C6.62814 12.7094 7.53127 14.4594 8.94689 15.6063C7.95314 16.0656 7.03752 16.7 6.24377 17.4938C4.53127 19.2031 3.56252 21.4594 3.50002 23.8687C3.49918 23.9021 3.50503 23.9353 3.51722 23.9663C3.52941 23.9974 3.5477 24.0257 3.57099 24.0496C3.59429 24.0735 3.62213 24.0924 3.65288 24.1054C3.68363 24.1183 3.71665 24.125 3.75002 24.125H5.50314C5.63752 24.125 5.75002 24.0187 5.75314 23.8844C5.81252 22.0719 6.54689 20.375 7.83752 19.0875C8.75627 18.1688 9.88127 17.5312 11.1094 17.2219C11.2313 17.1906 11.3125 17.075 11.2969 16.95Z" fill="#0C7FDA"/>
</g>
</svg>
