<svg width="28" height="20" viewBox="0 0 28 20" fill="none" xmlns="http://www.w3.org/2000/svg">
<g id="Iconly/Bold/3-User">
<g id="3-User">
<path id="3-Friends" d="M14.1632 13.0555C18.348 13.0555 21.9213 13.719 21.9213 16.3739C21.9213 19.0277 18.371 19.7153 14.1632 19.7153C9.97834 19.7153 6.40507 19.0518 6.40507 16.398C6.40507 13.7431 9.95541 13.0555 14.1632 13.0555ZM20.8542 11.4569C22.4541 11.4272 24.1742 11.6469 24.8097 11.8029C26.1563 12.0676 27.042 12.608 27.4089 13.3934C27.719 14.0382 27.719 14.7862 27.4089 15.4299C26.8476 16.648 25.038 17.0391 24.3347 17.1401C24.1894 17.1621 24.0726 17.0358 24.0879 16.8897C24.4472 13.5142 21.5892 11.9138 20.8499 11.5459C20.8182 11.5294 20.8116 11.5041 20.8149 11.4887C20.8171 11.4777 20.8302 11.4602 20.8542 11.4569ZM7.29601 11.4546L7.59729 11.4573C7.62131 11.4606 7.63333 11.4782 7.63551 11.4881C7.63879 11.5045 7.63223 11.5287 7.60166 11.5463C6.86123 11.9143 4.00326 13.5147 4.36255 16.889C4.37784 17.0362 4.26208 17.1614 4.11683 17.1406C3.41354 17.0395 1.60396 16.6485 1.04264 15.4303C0.731394 14.7855 0.731394 14.0386 1.04264 13.3938C1.40957 12.6085 2.29416 12.068 3.64069 11.8022C4.27737 11.6473 5.9963 11.4277 7.59729 11.4573L7.29601 11.4546ZM14.1632 0.200878C17.0124 0.200878 19.297 2.49659 19.297 5.36348C19.297 8.22927 17.0124 10.5272 14.1632 10.5272C11.314 10.5272 9.02933 8.22927 9.02933 5.36348C9.02933 2.49659 11.314 0.200878 14.1632 0.200878ZM21.1327 1.06182C23.8848 1.06182 26.046 3.66619 25.3099 6.56713C24.813 8.52013 23.0144 9.81737 21.0104 9.76464C20.8095 9.75915 20.6118 9.74048 20.4207 9.70753C20.282 9.68336 20.2121 9.52629 20.2907 9.40985C21.0552 8.27848 21.4909 6.91753 21.4909 5.45662C21.4909 3.93201 21.0148 2.51065 20.1881 1.34522C20.1619 1.30897 20.1422 1.25295 20.1684 1.21121C20.1903 1.17716 20.2307 1.15958 20.2689 1.1508C20.5474 1.09368 20.8335 1.06182 21.1327 1.06182ZM7.31717 1.06171C7.6164 1.06171 7.90252 1.09357 8.1821 1.15069C8.21923 1.15947 8.26072 1.17815 8.28257 1.2111C8.30768 1.25284 8.28912 1.30886 8.26291 1.34511C7.43621 2.51054 6.96006 3.9319 6.96006 5.45651C6.96006 6.91742 7.3958 8.27837 8.16025 9.40974C8.23888 9.52618 8.16899 9.68325 8.0303 9.70742C7.83809 9.74147 7.64152 9.75904 7.44057 9.76453C5.43661 9.81726 3.63796 8.52002 3.14106 6.56702C2.40391 3.66608 4.56513 1.06171 7.31717 1.06171Z" fill="#5D7285"/>
</g>
</g>
</svg>
