<svg width="24" height="25" viewBox="0 0 24 25" fill="none" xmlns="http://www.w3.org/2000/svg">
<g id="Iconly/Bold/Setting">
<g id="Setting">
<path id="Vector" d="M13.1 0.304901C14.0223 0.304901 14.8575 0.817154 15.3186 1.57334C15.543 1.93923 15.6926 2.3905 15.6552 2.86617C15.6302 3.23206 15.7424 3.59796 15.9418 3.93946C16.5775 4.97616 17.986 5.36645 19.0829 4.78102C20.3168 4.07362 21.8749 4.5005 22.5853 5.70795L23.4204 7.14714C24.1434 8.35459 23.7445 9.90355 22.4981 10.5987C21.4386 11.2208 21.0647 12.599 21.7004 13.6479C21.8998 13.9772 22.1241 14.2577 22.4731 14.4284C22.9094 14.6602 23.2459 15.0261 23.4828 15.392C23.9439 16.1482 23.9065 17.0751 23.4578 17.8923L22.5853 19.3558C22.1241 20.1364 21.2641 20.6243 20.3791 20.6243C19.9429 20.6243 19.4568 20.5023 19.0579 20.2584C18.7339 20.051 18.3599 19.9779 17.9611 19.9779C16.7271 19.9779 15.6926 20.9902 15.6552 22.1976C15.6552 23.6002 14.5085 24.6979 13.0751 24.6979H11.3799C9.93406 24.6979 8.78734 23.6002 8.78734 22.1976C8.76241 20.9902 7.72787 19.9779 6.49391 19.9779C6.08259 19.9779 5.70866 20.051 5.39705 20.2584C4.99819 20.5023 4.49962 20.6243 4.07583 20.6243C3.1784 20.6243 2.31837 20.1364 1.85719 19.3558L0.997151 17.8923C0.535972 17.0995 0.511043 16.1482 0.972222 15.392C1.17165 15.0261 1.54558 14.6602 1.96937 14.4284C2.31837 14.2577 2.54272 13.9772 2.75462 13.6479C3.37783 12.599 3.0039 11.2208 1.94444 10.5987C0.710472 9.90355 0.311614 8.35459 1.02208 7.14714L1.85719 5.70795C2.58012 4.5005 4.12569 4.07362 5.37212 4.78102C6.45652 5.36645 7.86498 4.97616 8.50066 3.93946C8.70009 3.59796 8.81227 3.23206 8.78734 2.86617C8.76241 2.3905 8.89952 1.93923 9.13634 1.57334C9.59752 0.817154 10.4326 0.329294 11.3425 0.304901H13.1ZM12.24 9.06199C10.2831 9.06199 8.70009 10.5987 8.70009 12.5136C8.70009 14.4284 10.2831 15.953 12.24 15.953C14.1968 15.953 15.7424 14.4284 15.7424 12.5136C15.7424 10.5987 14.1968 9.06199 12.24 9.06199Z" fill="#5D7285"/>
</g>
</g>
</svg>
