<svg width="23" height="25" fill="none" xmlns="http://www.w3.org/2000/svg"><path d="M11.231.218c3.269 0 5.956 2.569 6.092 5.823h-.031a.61.61 0 0 1-.054.276h.191c1.484 0 3.039 1.028 3.662 3.512l.067.293.938 7.555c.675 4.82-1.961 6.846-5.558 6.931l-.24.003H6.185c-3.655 0-6.471-1.332-5.852-6.606l.042-.328.949-7.555c.468-2.675 2.038-3.73 3.55-3.801l.169-.004h.095a.791.791 0 0 1 0-.276C5.275 2.787 7.963.218 11.231.218Zm-3.546 10.16c-.596 0-1.078.496-1.078 1.109 0 .612.482 1.11 1.078 1.11.595 0 1.078-.498 1.078-1.11l-.009-.14a1.09 1.09 0 0 0-1.07-.97Zm7.06 0c-.595 0-1.078.496-1.078 1.109 0 .612.483 1.11 1.078 1.11.595 0 1.078-.498 1.078-1.11 0-.613-.483-1.11-1.078-1.11Zm-3.561-8.571a4.242 4.242 0 0 0-4.25 4.234.791.791 0 0 1 0 .276h8.552a.79.79 0 0 1-.053-.276 4.242 4.242 0 0 0-4.25-4.234Z" fill="#5D7285"/></svg>6253 12.0994 8.76253 11.4866L8.75413 11.3475C8.68762 10.8004 8.23414 10.3772 7.68461 10.3772ZM14.7449 10.3772C14.1496 10.3772 13.667 10.8739 13.667 11.4866C13.667 12.0994 14.1496 12.5961 14.7449 12.5961C15.3403 12.5961 15.8229 12.0994 15.8229 11.4866C15.8229 10.8739 15.3403 10.3772 14.7449 10.3772ZM11.1835 1.80683C8.83675 1.80683 6.93434 3.70271 6.93434 6.04138C6.95042 6.13243 6.95042 6.22558 6.93434 6.31663H15.4858C15.4518 6.22875 15.4338 6.13555 15.4326 6.04138C15.4326 3.70271 13.5302 1.80683 11.1835 1.80683Z" fill="#5D7285"/>
</g>
</g>
</svg>
