<svg width="25" height="26" fill="none" xmlns="http://www.w3.org/2000/svg"><path d="M7.249 14.664a3.1 3.1 0 0 1 3.098 3.124v4.157c0 1.72-1.378 3.123-3.098 3.123H3.127c-1.708 0-3.098-1.403-3.098-3.123v-4.157c0-1.732 1.39-3.124 3.098-3.124h4.122Zm14.075 0c1.707 0 3.098 1.392 3.098 3.124v4.157c0 1.72-1.39 3.123-3.098 3.123H17.2c-1.72 0-3.097-1.403-3.097-3.123v-4.157a3.1 3.1 0 0 1 3.098-3.124h4.122ZM7.249.675c1.72 0 3.098 1.403 3.098 3.124v4.157a3.1 3.1 0 0 1-3.098 3.123H3.127A3.108 3.108 0 0 1 .029 7.956V3.8c0-1.721 1.39-3.124 3.098-3.124h4.122Zm14.075 0c1.707 0 3.098 1.403 3.098 3.124v4.157a3.108 3.108 0 0 1-3.098 3.123H17.2a3.1 3.1 0 0 1-3.097-3.123V3.8c0-1.721 1.378-3.124 3.098-3.124h4.122Z" fill="#5D7285"/></svg>9C10.3469 9.68839 8.96872 11.0788 7.24901 11.0788H3.1266C1.41909 11.0788 0.0286865 9.68839 0.0286865 7.95649V3.7987C0.0286865 2.07778 1.41909 0.675179 3.1266 0.675179H7.24901ZM21.3239 0.675179C23.0314 0.675179 24.4218 2.07778 24.4218 3.7987V7.95649C24.4218 9.68839 23.0314 11.0788 21.3239 11.0788H17.2015C15.4818 11.0788 14.1036 9.68839 14.1036 7.95649V3.7987C14.1036 2.07778 15.4818 0.675179 17.2015 0.675179H21.3239Z" fill="#5D7285"/>
</g>
</g>
</svg>
