<svg width="36" height="36" fill="none" xmlns="http://www.w3.org/2000/svg"><path d="M18.065.72c9.933 0 17.453 8.143 17.453 17.46 0 10.806-8.814 17.514-17.488 17.514-2.868 0-6.05-.77-8.604-2.277-.892-.542-1.644-.945-2.605-.63l-3.533 1.05c-.892.281-1.696-.42-1.434-1.365l1.172-3.923c.192-.543.157-1.121-.123-1.577C1.4 24.205.543 21.175.543 18.233.542 9.021 7.904.719 18.064.719Zm7.992 15.289a2.233 2.233 0 0 0-2.238 2.241c0 1.227.996 2.242 2.238 2.242a2.244 2.244 0 0 0 2.238-2.242 2.233 2.233 0 0 0-2.238-2.241Zm-8.062 0c-1.224-.018-2.238.998-2.238 2.224a2.26 2.26 0 0 0 2.238 2.26 2.244 2.244 0 0 0 2.239-2.242 2.233 2.233 0 0 0-2.239-2.242Zm-8.062 0a2.233 2.233 0 0 0-2.238 2.241 2.256 2.256 0 0 0 2.238 2.242c1.242-.017 2.239-1.015 2.239-2.242a2.233 2.233 0 0 0-2.239-2.241Z" fill="#5FB3F6"/></svg>.9951 16.0087C16.771 15.9912 15.7567 17.007 15.7567 18.233C15.7567 19.4765 16.7535 20.4748 17.9951 20.4923C19.2368 20.4923 20.2336 19.4765 20.2336 18.2505C20.2336 17.007 19.2368 16.0087 17.9951 16.0087ZM9.93334 16.0087C8.69172 16.0087 7.69492 17.007 7.69492 18.2505C7.69492 19.4765 8.7092 20.4923 9.93334 20.4923C11.175 20.4748 12.1718 19.4765 12.1718 18.2505C12.1718 17.007 11.175 16.0087 9.93334 16.0087Z" fill="#5FB3F6"/>
</g>
</g>
</svg>
