<svg width="25" height="25" fill="#5D7285" xmlns="http://www.w3.org/2000/svg"><path d="M12.25.132c6.927 0 12.172 5.68 12.172 12.178 0 7.537-6.147 12.215-12.197 12.215-2 0-4.22-.537-6-1.588-.622-.379-1.147-.66-1.818-.44l-2.463.733c-.622.196-1.183-.293-1-.953l.817-2.736c.134-.378.11-.781-.086-1.099C.626 16.512.03 14.399.03 12.347.029 5.922 5.164.132 12.249.132Zm5.573 10.663c-.865 0-1.56.697-1.56 1.564 0 .855.695 1.563 1.56 1.563.866 0 1.562-.708 1.562-1.563 0-.867-.696-1.563-1.562-1.563Zm-5.622 0a1.555 1.555 0 0 0-1.561 1.552c0 .867.695 1.563 1.56 1.575.867 0 1.562-.708 1.562-1.563 0-.867-.695-1.563-1.561-1.563Zm-5.623 0c-.866 0-1.56.697-1.56 1.564 0 .855.707 1.563 1.56 1.563A1.573 1.573 0 0 0 8.14 12.36c0-.867-.695-1.563-1.56-1.563Z"/></svg>847 12.359C19.3847 11.4918 18.6895 10.7955 17.8235 10.7955ZM12.2009 10.7955C11.3472 10.7833 10.6398 11.4918 10.6398 12.3468C10.6398 13.2141 11.335 13.9103 12.2009 13.9225C13.0669 13.9225 13.7621 13.2141 13.7621 12.359C13.7621 11.4918 13.0669 10.7955 12.2009 10.7955ZM6.57833 10.7955C5.71238 10.7955 5.01718 11.4918 5.01718 12.359C5.01718 13.2141 5.72457 13.9225 6.57833 13.9225C7.44428 13.9103 8.13948 13.2141 8.13948 12.359C8.13948 11.4918 7.44428 10.7955 6.57833 10.7955Z"/>
</g>
</g>
</svg>
