<svg width="25" height="22" fill="none" xmlns="http://www.w3.org/2000/svg"><path d="M20.228 13.508c2.317 0 4.194 1.845 4.194 4.122 0 2.275-1.877 4.12-4.194 4.12-2.316 0-4.195-1.845-4.195-4.12 0-2.277 1.879-4.122 4.195-4.122Zm-10.34 2.364c1.015 0 1.838.81 1.838 1.806s-.823 1.807-1.838 1.807h-8.02c-1.015 0-1.84-.81-1.84-1.806 0-.998.825-1.807 1.84-1.807h8.02ZM4.223.068c2.317 0 4.194 1.845 4.194 4.12 0 2.277-1.877 4.122-4.194 4.122C1.907 8.31.029 6.465.029 4.188c0-2.275 1.878-4.12 4.194-4.12Zm18.361 2.315c1.014 0 1.838.81 1.838 1.805 0 .998-.824 1.807-1.838 1.807h-8.02c-1.015 0-1.839-.81-1.839-1.807 0-.996.824-1.805 1.84-1.805h8.02Z" fill="#5D7285"/></svg>