<svg width="25" height="25" fill="#5D7285" xmlns="http://www.w3.org/2000/svg"><path d="M17.511.046c4.134 0 6.91 2.9 6.91 7.216v9.96c0 4.316-2.776 7.217-6.911 7.217H6.94c-4.134 0-6.911-2.9-6.911-7.217v-9.96c0-4.316 2.777-7.216 6.91-7.216h10.572Zm1.345 12.867c-1.307-.816-2.317.33-2.589.696-.262.354-.488.744-.726 1.134-.581.963-1.247 2.073-2.4 2.719-1.675.927-2.947.073-3.862-.549-.344-.232-.677-.45-1.01-.597-.819-.353-1.556.05-2.65 1.44-.574.725-1.143 1.445-1.72 2.163-.344.429-.262 1.091.203 1.378.742.457 1.647.702 2.67.702H17.05c.58 0 1.161-.079 1.716-.26 1.248-.408 2.239-1.342 2.757-2.576.436-1.037.648-2.295.24-3.343a2.752 2.752 0 0 0-.625-.955c-.75-.744-1.45-1.438-2.283-1.952Zm-10.9-7.989a3.051 3.051 0 0 0-3.049 3.05 3.051 3.051 0 0 0 3.048 3.048 3.052 3.052 0 0 0 3.048-3.049 3.052 3.052 0 0 0-3.048-3.049Z"/></svg>4896 21.9993 6.77182 21.9993H17.0507C17.6308 21.9993 18.2122 21.92 18.7665 21.7387C20.015 21.3309 21.006 20.397 21.5236 19.1635C21.9602 18.1264 22.1724 16.8677 21.764 15.8205C21.6278 15.4731 21.4242 15.1496 21.1385 14.8652C20.3891 14.1213 19.6888 13.4265 18.856 12.913ZM7.95514 4.92419C6.27368 4.92419 4.90741 6.29231 4.90741 7.97332C4.90741 9.65433 6.27368 11.0224 7.95514 11.0224C9.63538 11.0224 11.0029 9.65433 11.0029 7.97332C11.0029 6.29231 9.63538 4.92419 7.95514 4.92419Z" />
</g>
</g>
</svg>
