<svg width="25" height="18" viewBox="0 0 25 18" fill="none" xmlns="http://www.w3.org/2000/svg">
<path id="inverted-commas (1) 1 (Traced)" fill-rule="evenodd" clip-rule="evenodd" d="M0.5 12.7782V8.52706H4.10792C7.17119 8.52706 7.71585 8.50905 7.71585 8.40802C7.71585 8.34259 7.6703 7.99792 7.61464 7.64207C7.36405 6.03932 6.3275 4.44965 4.90832 3.49156C3.79558 2.74036 2.69868 2.33767 1.34416 2.18322L0.5 2.08686V1.05584V0.0248146L1.03885 0.025898C1.33516 0.0264816 1.95723 0.0970821 2.4211 0.18269C4.29928 0.52928 5.84441 1.27056 7.20849 2.47938C8.52168 3.64319 9.29406 4.81841 9.80394 6.42859C9.99952 7.04625 10.0076 7.24038 10.0367 12.0488L10.0669 17.0293H5.28345H0.5V12.7782ZM14.9317 12.7782V8.52706H18.5062H22.0806L22.0303 7.87397C21.9712 7.10743 21.5693 5.99506 21.1041 5.31037C19.8854 3.5169 17.8603 2.37051 15.5174 2.14796L14.9317 2.09236V1.04625V0.000141144L15.7517 0.0497379C16.9063 0.119589 17.9072 0.372072 19.1019 0.89496C21.663 2.01576 23.4232 3.93126 24.1912 6.43325L24.4373 7.23505L24.4687 12.1322L24.5 17.0293H19.7159H14.9317V12.7782ZM7.71585 12.8199V10.6943H5.32618H2.93652V12.8199V14.9454H5.32618H7.71585V12.8199ZM22.0538 12.8199V10.6943H19.6642H17.2745V12.8199V14.9454H19.6642H22.0538V12.8199Z" fill="#0C7FDA"/>
</svg>
