<svg width="25" height="25" viewBox="0 0 25 25" fill="#5d7285" xmlns="http://www.w3.org/2000/svg">
<g id="Iconly/Bold/Edit-Square">
<g id="Edit-Square">
<path id="Vector" d="M17.9153 0.514986C19.6698 0.405331 21.4 1.01453 22.7036 2.20855C23.8977 3.51222 24.5069 5.24234 24.4094 7.009V18.3888C24.5191 20.1554 23.8977 21.8855 22.7158 23.1892C21.4121 24.3832 19.6698 24.9924 17.9153 24.8828H6.53548C4.7688 24.9924 3.03868 24.3832 1.73499 23.1892C0.540958 21.8855 -0.0682418 20.1554 0.0414141 18.3888V7.009C-0.0682418 5.24234 0.540958 3.51222 1.73499 2.20855C3.03868 1.01453 4.7688 0.405331 6.53548 0.514986H17.9153ZM17.5985 6.08303C16.8431 5.32762 15.6247 5.32762 14.8693 6.08303L14.053 6.91153C13.9312 7.03337 13.9312 7.2405 14.053 7.36233C14.053 7.36233 14.0769 7.3861 14.1195 7.42842L14.4192 7.72647C14.5925 7.89895 14.8089 8.11435 15.0262 8.33095L15.763 9.06738C15.9167 9.22181 16.0187 9.3253 16.0268 9.33613C16.1608 9.48233 16.2461 9.67727 16.2461 9.89659C16.2461 10.3352 15.8928 10.7007 15.442 10.7007C15.2349 10.7007 15.0399 10.6154 14.9059 10.4814L12.8712 8.45889C12.7737 8.36141 12.6031 8.36141 12.5056 8.45889L6.69387 14.2706C6.2918 14.6727 6.06031 15.2088 6.04812 15.7814L5.97502 18.669C5.97502 18.8274 6.02375 18.9736 6.13341 19.0832C6.24307 19.1929 6.38927 19.2538 6.54767 19.2538H9.4109C9.99574 19.2538 10.5562 19.0223 10.9826 18.6081L19.1825 10.3839C19.9257 9.62854 19.9257 8.41015 19.1825 7.66693L17.5985 6.08303Z"/>
</g>
</g>
</svg>
