<svg width="32" height="33" viewBox="0 0 32 33" fill="none" xmlns="http://www.w3.org/2000/svg">
<g id="uim:process">
<path id="Vector" d="M11.5003 12.1387H5.50033C5.1467 12.1387 4.80756 11.9982 4.55752 11.7482C4.30747 11.4981 4.16699 11.159 4.16699 10.8054V4.80538C4.16699 4.45176 4.30747 4.11262 4.55752 3.86257C4.80756 3.61252 5.1467 3.47205 5.50033 3.47205C5.85395 3.47205 6.19309 3.61252 6.44313 3.86257C6.69318 4.11262 6.83366 4.45176 6.83366 4.80538V9.47205H11.5003C11.8539 9.47205 12.1931 9.61252 12.4431 9.86257C12.6932 10.1126 12.8337 10.4518 12.8337 10.8054C12.8337 11.159 12.6932 11.4981 12.4431 11.7482C12.1931 11.9982 11.8539 12.1387 11.5003 12.1387Z" fill="#0C7FDA"/>
<path id="Vector_2" d="M28 18.1388C27.6464 18.1388 27.3072 17.9984 27.0572 17.7483C26.8071 17.4983 26.6667 17.1591 26.6667 16.8055C26.6677 14.4582 25.8939 12.1762 24.4655 10.3137C23.037 8.45107 21.0337 7.11204 18.7665 6.50435C16.4992 5.89666 14.0948 6.05429 11.9262 6.95278C9.75773 7.85127 7.9464 9.44038 6.77333 11.4735C6.59617 11.7796 6.30468 12.0027 5.96299 12.0939C5.6213 12.185 5.25739 12.1367 4.95133 11.9595C4.64527 11.7824 4.42213 11.4909 4.33099 11.1492C4.23984 10.8075 4.28817 10.4436 4.46533 10.1375C5.93234 7.5965 8.19692 5.61064 10.9078 4.48803C13.6186 3.36542 16.6241 3.16881 19.4581 3.9287C22.2921 4.68859 24.7961 6.3625 26.5816 8.69075C28.3671 11.019 29.3344 13.8714 29.3333 16.8055C29.3333 17.1591 29.1929 17.4983 28.9428 17.7483C28.6928 17.9984 28.3536 18.1388 28 18.1388ZM26.5 30.1388C26.1464 30.1388 25.8072 29.9984 25.5572 29.7483C25.3071 29.4983 25.1667 29.1591 25.1667 28.8055V24.1388H20.5C20.1464 24.1388 19.8072 23.9984 19.5572 23.7483C19.3071 23.4983 19.1667 23.1591 19.1667 22.8055C19.1667 22.4519 19.3071 22.1128 19.5572 21.8627C19.8072 21.6127 20.1464 21.4722 20.5 21.4722H26.5C26.8536 21.4722 27.1928 21.6127 27.4428 21.8627C27.6929 22.1128 27.8333 22.4519 27.8333 22.8055V28.8055C27.8333 29.1591 27.6929 29.4983 27.4428 29.7483C27.1928 29.9984 26.8536 30.1388 26.5 30.1388Z" fill="#0C7FDA"/>
<path id="Vector_3" d="M16.0003 30.1387C12.4654 30.1345 9.07648 28.7284 6.57691 26.2288C4.07734 23.7292 2.67123 20.3403 2.66699 16.8054C2.66699 16.4518 2.80747 16.1126 3.05752 15.8626C3.30756 15.6125 3.6467 15.472 4.00033 15.472C4.35395 15.472 4.69309 15.6125 4.94313 15.8626C5.19318 16.1126 5.33366 16.4518 5.33366 16.8054C5.33264 19.1527 6.1064 21.4346 7.53487 23.2972C8.96333 25.1598 10.9666 26.4989 13.2339 27.1065C15.5011 27.7142 17.9056 27.5566 20.0741 26.6581C22.2426 25.7596 24.0539 24.1705 25.227 22.1374C25.3147 21.9858 25.4314 21.8531 25.5705 21.7466C25.7095 21.6402 25.8682 21.5622 26.0373 21.517C26.2065 21.4719 26.3829 21.4605 26.5565 21.4836C26.7301 21.5066 26.8974 21.5637 27.049 21.6514C27.2005 21.7391 27.3333 21.8558 27.4398 21.9949C27.5462 22.1339 27.6242 22.2925 27.6693 22.4617C27.7145 22.6309 27.7258 22.8073 27.7028 22.9809C27.6797 23.1545 27.6227 23.3218 27.535 23.4734C26.3623 25.4953 24.6803 27.1747 22.6565 28.3442C20.6327 29.5137 18.3377 30.1324 16.0003 30.1387Z" fill="#0C7FDA"/>
</g>
</svg>
